# xmcd
#
# Track frame offsets:
#	150
#	12710
#	26342
#	40872
#	54647
#	68975
#	83685
#	95312
#	113340
#	125770
#	145062
#	159310
#	175687
#	192295
#	209330
#	230465
#
# Disc length: 3241 seconds
#
# Revision: 4
# Processed by: cddbd v1.5.1PL2 Copyright (c) Steve Scherf et al.
# Submitted via: dBpowerAMP V4.0
#
DISCID=ce0ca710
DTITLE=Various Artist - This is The Sound Of New Country
DYEAR=1994
DGENRE=Country
TTITLE0=Clay Walker - What's It To You
TTITLE1=Travis Tritt - T-R-O-U-B-L-E
TTITLE2=Carlene Carter - Every Little Thing
TTITLE3=Tracy Lawrence - Alibis
TTITLE4=John Michael Montgomery - Life's A Dance
TTITLE5=Confederate Railroad - Trashy Women
TTITLE6=Dwight Yoakam - It Only Hurts When I Cry
TTITLE7=Little Texas - What Might Have Been
TTITLE8=Faith Hill - Wild One
TTITLE9=George Fox - Mustang Heart
TTITLE10=Emmylou Harris - High Powered Love
TTITLE11=Brother Phelps - Let Go
TTITLE12=The Johner Brothers - My Brother And Me
TTITLE13=Patricia Conroy - Bad Day For Trains
TTITLE14=Deborah Allen - If You're Not Gonna Love Me
TTITLE15=Randy Travis - Cowboy Boogie
EXTD=
EXTT0=
EXTT1=
EXTT2=
EXTT3=
EXTT4=
EXTT5=
EXTT6=
EXTT7=
EXTT8=
EXTT9=
EXTT10=
EXTT11=
EXTT12=
EXTT13=
EXTT14=
EXTT15=
PLAYORDER=
